<?xml version="1.0" encoding="UTF-8" standalone="no"?>
<!DOCTYPE svg PUBLIC "-//W3C//DTD SVG 1.1//EN"
 "http://www.w3.org/Graphics/SVG/1.1/DTD/svg11.dtd">
<!-- Generated by graphviz version 2.38.0 (20140413.2041)
 -->
<!-- Title: G Pages: 1 -->
<svg width="375pt" height="44pt"
 viewBox="0.00 0.00 374.94 44.00" xmlns="http://www.w3.org/2000/svg" xmlns:xlink="http://www.w3.org/1999/xlink">
<g id="graph0" class="graph" transform="scale(1 1) rotate(0) translate(4 40)">
<title>G</title>
<polygon fill="white" stroke="none" points="-4,4 -4,-40 370.941,-40 370.941,4 -4,4"/>
<!-- A -->
<g id="node1" class="node"><title>A</title>
<ellipse fill="none" stroke="black" cx="54.0651" cy="-18" rx="54.1302" ry="18"/>
<text text-anchor="middle" x="54.0651" y="-13.8" font-family="Times,serif" font-size="14.00">Code source</text>
</g>
<!-- C -->
<g id="node2" class="node"><title>C</title>
<ellipse fill="none" stroke="black" cx="198.446" cy="-18" rx="54.1317" ry="18"/>
<text text-anchor="middle" x="198.446" y="-13.8" font-family="Times,serif" font-size="14.00">Compilateur</text>
</g>
<!-- A&#45;&gt;C -->
<g id="edge1" class="edge"><title>A&#45;&gt;C</title>
<path fill="none" stroke="black" d="M108.487,-18C116.678,-18 125.204,-18 133.592,-18"/>
<polygon fill="black" stroke="black" points="133.724,-21.5001 143.724,-18 133.724,-14.5001 133.724,-21.5001"/>
</g>
<!-- D -->
<g id="node3" class="node"><title>D</title>
<ellipse fill="none" stroke="black" cx="327.851" cy="-18" rx="39.18" ry="18"/>
<text text-anchor="middle" x="327.851" y="-13.8" font-family="Times,serif" font-size="14.00">Resultat</text>
</g>
<!-- C&#45;&gt;D -->
<g id="edge2" class="edge"><title>C&#45;&gt;D</title>
<path fill="none" stroke="black" d="M253.108,-18C261.523,-18 270.179,-18 278.467,-18"/>
<polygon fill="black" stroke="black" points="278.722,-21.5001 288.722,-18 278.722,-14.5001 278.722,-21.5001"/>
</g>
</g>
</svg>
