<svg id="bot_blueprint" xmlns="http://www.w3.org/2000/svg" viewBox="0 0 151.6 90.19"><defs><style>.cls-1,.cls-12,.cls-5,.cls-7{fill:#fff;}.cls-1,.cls-14,.cls-16,.cls-17,.cls-5,.cls-7{stroke:#455174;}.cls-1,.cls-10,.cls-11,.cls-14,.cls-16,.cls-17,.cls-2,.cls-6,.cls-7,.cls-8,.cls-9{stroke-miterlimit:10;}.cls-1,.cls-2,.cls-9{stroke-width:0.72px;}.cls-10,.cls-11,.cls-14,.cls-16,.cls-17,.cls-2,.cls-6,.cls-8,.cls-9{fill:none;}.cls-10,.cls-11,.cls-2,.cls-6,.cls-8,.cls-9{stroke:#445275;}.cls-3{fill:#3081c2;}.cls-4{fill:#445275;}.cls-10,.cls-11,.cls-5,.cls-8,.cls-9{stroke-linecap:round;}.cls-5{stroke-linejoin:round;}.cls-14,.cls-5,.cls-6,.cls-7{stroke-width:0.75px;}.cls-8{stroke-width:0.25px;}.cls-9{stroke-dasharray:0.87 1.73;}.cls-10{stroke-width:0.57px;stroke-dasharray:0.68 1.36;}.cls-11,.cls-17{stroke-width:0.5px;}.cls-11{stroke-dasharray:0.5 0.6;}.cls-13{fill:#e5dcec;}.cls-15{fill:#455174;}.cls-16{stroke-width:0.5px;}</style></defs><title>blueprint</title><path class="cls-1" d="M59.7,38.66A24.59,24.59,0,0,0,35.8,62H84.73A24.59,24.59,0,0,0,60.17,38.65Z" transform="translate(-18.81 -21.61)"/><path class="cls-1" d="M60.24,62.77h23A7.19,7.19,0,0,1,90.47,70v.32c-1.26,20.81-8.3,39.58-30.23,39.58h.06c-21.93,0-29-18.78-30.23-39.58V70a7.19,7.19,0,0,1,7.19-7.19h23" transform="translate(-18.81 -21.61)"/><path class="cls-2" d="M34.17,63.34V42.56a1,1,0,1,0-2,0V65" transform="translate(-18.81 -21.61)"/><rect class="cls-3" x="41.56" y="38.82" height="0.74"/><path class="cls-1" d="M60.37,46.38h0a5.07,5.07,0,0,0,0,10.14h0a5.07,5.07,0,0,0,0-10.14Z" transform="translate(-18.81 -21.61)"/><circle class="cls-4" cx="41.56" cy="29.84" r="1.9"/><path class="cls-2" d="M50.23,51.45A10.14,10.14,0,0,0,60.37,61.58V56.52h0a5.07,5.07,0,0,1,0-10.14h0V41.31A10.14,10.14,0,0,0,50.23,51.45Z" transform="translate(-18.81 -21.61)"/><path class="cls-2" d="M65.43,51.45a5.07,5.07,0,0,1-5.07,5.07v5.07h0a10.14,10.14,0,0,0,0-20.27h0v5.07A5.07,5.07,0,0,1,65.43,51.45Z" transform="translate(-18.81 -21.61)"/><path class="cls-2" d="M113.07,50.45V28.86a1,1,0,1,0-2,0V50.45Z" transform="translate(-18.81 -21.61)"/><path class="cls-5" d="M139.78,29.61a24.49,24.49,0,0,1,15.13,5.21v.08l8,0L162.94,53h-2.78L155,53v0H115.15a24.59,24.59,0,0,1,24.56-23.38" transform="translate(-18.81 -21.61)"/><path class="cls-6" d="M163.09,34.87c.79,0,1.42,4.06,1.42,9.06S163.87,53,163.09,53Z" transform="translate(-18.81 -21.61)"/><ellipse class="cls-7" cx="145.33" cy="22.32" rx="0.37" ry="3.53"/><polyline class="cls-8" points="46.87 21.21 54.33 13.44 60.53 13.44"/><line class="cls-9" x1="11.25" y1="48.37" x2="71.52" y2="48.37"/><line class="cls-10" x1="120.24" y1="32.21" x2="120.24" y2="37.79"/><line class="cls-10" x1="93.27" y1="34.19" x2="93.27" y2="38.12"/><polygon class="cls-4" points="92.12 37.78 93.27 39.76 94.41 37.78 92.12 37.78"/><rect class="cls-2" x="92.27" y="28.84" width="1.99" height="3.32"/><line class="cls-2" x1="92.27" y1="29.84" x2="94.26" y2="28.84"/><line class="cls-2" x1="92.27" y1="30.95" x2="94.26" y2="29.84"/><line class="cls-2" x1="92.27" y1="32.16" x2="94.26" y2="30.95"/><path class="cls-7" d="M162.84,62.78h-9.51V60.6H124.76v2.17h-8A7.19,7.19,0,0,0,109.56,70v.32c1.26,20.81,8.3,39.58,30.23,39.58s29-18.78,30.23-39.58V70A7.19,7.19,0,0,0,162.84,62.78Z" transform="translate(-18.81 -21.61)"/><rect class="cls-11" x="105.96" y="29.4" width="28.56" height="1.98"/><path class="cls-12" d="M158.33,67h0Z" transform="translate(-18.81 -21.61)"/><path class="cls-13" d="M158.39,67h0Z" transform="translate(-18.81 -21.61)"/><path class="cls-13" d="M158.39,70V67h-.06v3Z" transform="translate(-18.81 -21.61)"/><rect class="cls-3" x="121.71" y="38.52" height="0.74"/><line class="cls-9" x1="90.91" y1="48.37" x2="151.19" y2="48.37"/><polyline class="cls-11" points="94.26 42.19 94.26 47.07 92.27 47.07 92.27 43.75"/><line class="cls-14" x1="105.96" y1="41.17" x2="134.52" y2="41.17"/><rect class="cls-15" x="61.6" y="13.2" width="4.32" height="0.64"/><rect class="cls-15" x="61.6" y="11.92" width="4.32" height="0.64"/><rect class="cls-15" x="84.27" y="88.1" width="9" height="0.64"/><rect class="cls-15" x="84.27" y="89.55" width="9" height="0.64"/><rect class="cls-15" x="84.27" y="86.5" width="9" height="0.64"/><rect class="cls-15" x="88.31" y="85.07" width="4.96" height="0.64"/><rect class="cls-15" x="38.89" y="1.28" width="8.83" height="0.64"/><rect class="cls-15" x="40.8" width="4.32" height="0.64"/><rect class="cls-15" x="84.28" y="0.56" width="4.32" height="0.64"/><rect class="cls-15" x="84.28" y="1.79" width="4.32" height="0.64"/><rect class="cls-15" x="84.28" y="3.23" width="4.32" height="0.64"/><rect class="cls-15" x="84.28" y="4.46" width="4.32" height="0.64"/><rect class="cls-15" x="1.28" y="45.58" width="0.64" height="8.83"/><rect class="cls-15" y="48.19" width="0.64" height="4.32"/><rect class="cls-15" x="19.61" y="12.24" width="4.24" height="0.64"/><rect class="cls-15" x="19.61" y="10.96" width="4.24" height="0.64"/><polyline class="cls-8" points="37.69 26.57 33.04 12.82 25.09 12.82"/><line class="cls-16" x1="70.17" y1="4.28" x2="12.75" y2="4.28"/><polygon class="cls-15" points="71.67 3.28 69.98 4.28 71.67 5.28 71.67 3.28"/><polygon class="cls-15" points="11.25 3.28 12.93 4.28 11.25 5.28 11.25 3.28"/><line class="cls-17" x1="3.91" y1="18.55" x2="3.91" y2="86.17"/><polygon class="cls-15" points="2.9 17.04 3.91 18.73 4.92 17.04 2.9 17.04"/><polygon class="cls-15" points="2.9 87.68 3.91 85.99 4.92 87.68 2.9 87.68"/><line class="cls-8" x1="11.25" y1="48.36" x2="11.25" y2="4.28"/><line class="cls-8" x1="3.66" y1="17.33" x2="41.36" y2="17.33"/><line class="cls-8" x1="3.66" y1="88.26" x2="41.36" y2="88.26"/><line class="cls-8" x1="71.75" y1="48.36" x2="71.75" y2="4.28"/><line class="cls-8" x1="105.96" y1="84.27" x2="136.44" y2="84.27"/><polyline class="cls-9" points="94.26 85.05 97.31 84.27 104.08 84.27"/><polyline class="cls-10" points="93.27 5.51 93.27 0.64 88.6 0.64"/></svg>