<?xml version="1.0" encoding="UTF-8" standalone="no"?>
<!DOCTYPE svg PUBLIC "-//W3C//DTD SVG 1.1//EN"
 "http://www.w3.org/Graphics/SVG/1.1/DTD/svg11.dtd">
<!-- Generated by graphviz version 2.40.1 (20161225.0304)
 -->
<!-- Title: G Pages: 1 -->
<svg width="380pt" height="44pt"
 viewBox="0.00 0.00 380.00 44.00" xmlns="http://www.w3.org/2000/svg" xmlns:xlink="http://www.w3.org/1999/xlink">
<g id="graph0" class="graph" transform="scale(1 1) rotate(0) translate(4 40)">
<title>G</title>
<polygon fill="transparent" stroke="transparent" points="-4,4 -4,-40 376,-40 376,4 -4,4"/>
<!-- A -->
<g id="node1" class="node">
<title>A</title>
<polygon fill="none" stroke="#162349" points="372,-36 306,-36 306,0 372,0 372,-36"/>
<text text-anchor="middle" x="339" y="-16.1" font-family="Roboto" font-size="8.00" fill="#162349">4ème étage</text>
</g>
<!-- B -->
<g id="node2" class="node">
<title>B</title>
<polygon fill="none" stroke="#162349" points="66,-36 0,-36 0,0 66,0 66,-36"/>
<text text-anchor="middle" x="33" y="-16.1" font-family="Roboto" font-size="8.00" fill="#162349">5ème étage</text>
</g>
<!-- D -->
<g id="node4" class="node">
<title>D</title>
<polygon fill="none" stroke="#162349" points="168,-36 102,-36 102,0 168,0 168,-36"/>
<text text-anchor="middle" x="135" y="-16.1" font-family="Roboto" font-size="8.00" fill="#162349">7ème étage</text>
</g>
<!-- B&#45;&gt;D -->
<g id="edge1" class="edge">
<title>B&#45;&gt;D</title>
<path fill="none" stroke="#162349" d="M66.1165,-18C74.2222,-18 83.018,-18 91.5279,-18"/>
<polygon fill="#162349" stroke="#162349" points="91.7007,-21.5001 101.7006,-18 91.7006,-14.5001 91.7007,-21.5001"/>
</g>
<!-- C -->
<g id="node3" class="node">
<title>C</title>
<polygon fill="none" stroke="#162349" points="270,-36 204,-36 204,0 270,0 270,-36"/>
<text text-anchor="middle" x="237" y="-16.1" font-family="Roboto" font-size="8.00" fill="#162349">6ème étage</text>
</g>
<!-- C&#45;&gt;A -->
<g id="edge3" class="edge">
<title>C&#45;&gt;A</title>
<path fill="none" stroke="#162349" d="M270.1165,-18C278.2222,-18 287.018,-18 295.5279,-18"/>
<polygon fill="#162349" stroke="#162349" points="295.7007,-21.5001 305.7006,-18 295.7006,-14.5001 295.7007,-21.5001"/>
</g>
<!-- D&#45;&gt;C -->
<g id="edge2" class="edge">
<title>D&#45;&gt;C</title>
<path fill="none" stroke="#162349" d="M168.1165,-18C176.2222,-18 185.018,-18 193.5279,-18"/>
<polygon fill="#162349" stroke="#162349" points="193.7007,-21.5001 203.7006,-18 193.7006,-14.5001 193.7007,-21.5001"/>
</g>
</g>
</svg>
