<?xml version="1.0" encoding="UTF-8" standalone="no"?>
<!DOCTYPE svg PUBLIC "-//W3C//DTD SVG 1.1//EN"
 "http://www.w3.org/Graphics/SVG/1.1/DTD/svg11.dtd">
<!-- Generated by graphviz version 2.40.1 (20161225.0304)
 -->
<!-- Title: G Pages: 1 -->
<svg width="226pt" height="144pt"
 viewBox="0.00 0.00 226.17 144.00" xmlns="http://www.w3.org/2000/svg" xmlns:xlink="http://www.w3.org/1999/xlink">
<g id="graph0" class="graph" transform="scale(.8136 .8136) rotate(0) translate(4 173)">
<title>G</title>
<polygon fill="transparent" stroke="transparent" points="-4,4 -4,-173 274,-173 274,4 -4,4"/>
<!-- A -->
<g id="node1" class="node">
<title>A</title>
<text text-anchor="middle" x="135" y="-162.6" font-family="Roboto" font-size="8.00" fill="#162349">Appel à l&#39;étage 6</text>
</g>
<!-- AA -->
<g id="node2" class="node">
<title>AA</title>
<polygon fill="none" stroke="#162349" points="141,-112 141,-100 129,-100 129,-112 141,-112"/>
<polyline fill="none" stroke="#162349" points="144,-115 144,-97 126,-97 126,-115 144,-115 "/>
<polyline fill="none" stroke="#162349" points="144,-106 162,-106 "/>
<polyline fill="none" stroke="#162349" points="108,-106 126,-106 "/>
</g>
<!-- A&#45;&gt;AA -->
<g id="edge1" class="edge">
<title>A&#45;&gt;AA</title>
<path fill="none" stroke="#162349" d="M135,-159.9096C135,-154.2721 135,-144.2352 135,-134.3377"/>
<polygon fill="#162349" stroke="#162349" points="138.5001,-134.2641 135,-124.2641 131.5001,-134.2642 138.5001,-134.2641"/>
</g>
<!-- B -->
<g id="node3" class="node">
<title>B</title>
<polygon fill="none" stroke="#162349" points="0,-8 0,-44 78,-44 78,-8 0,-8"/>
<text text-anchor="middle" x="39" y="-24.1" font-family="Roboto" font-size="8.00" fill="#162349">Etape(étage 6)</text>
</g>
<!-- AA&#45;&gt;B -->
<g id="edge2" class="edge">
<title>AA&#45;&gt;B</title>
<path fill="none" stroke="#162349" d="M113.2161,-87.8468C99.96,-76.8 82.8557,-62.5464 68.4089,-50.5075"/>
<polygon fill="#162349" stroke="#162349" points="70.6206,-47.7945 60.6977,-44.0814 66.1393,-53.1721 70.6206,-47.7945"/>
</g>
<!-- C -->
<g id="node4" class="node">
<title>C</title>
<polygon fill="none" stroke="#162349" points="96,-8 96,-44 174,-44 174,-8 96,-8"/>
<text text-anchor="middle" x="135" y="-33.1" font-family="Roboto" font-size="8.00" fill="#162349">Etape(étage 6)</text>
<polyline fill="none" stroke="#162349" points="96,-26 174,-26 "/>
<text text-anchor="middle" x="135" y="-15.1" font-family="Roboto" font-size="8.00" fill="#162349">Etape(étage 6)</text>
</g>
<!-- AA&#45;&gt;C -->
<g id="edge3" class="edge">
<title>AA&#45;&gt;C</title>
<path fill="none" stroke="#162349" d="M135,-87.8468C135,-77.9251 135,-65.4167 135,-54.2492"/>
<polygon fill="#162349" stroke="#162349" points="138.5001,-54.0814 135,-44.0814 131.5001,-54.0814 138.5001,-54.0814"/>
</g>
<!-- D -->
<g id="node5" class="node">
<title>D</title>
<polygon fill="none" stroke="#162349" points="192,-.5 192,-51.5 270,-51.5 270,-.5 192,-.5"/>
<text text-anchor="middle" x="231" y="-41.1" font-family="Roboto" font-size="8.00" fill="#162349">Etape(étage 6)</text>
<polyline fill="none" stroke="#162349" points="192,-34.5 270,-34.5 "/>
<text text-anchor="middle" x="231" y="-24.1" font-family="Roboto" font-size="8.00" fill="#162349">Etape(étage 6)</text>
<polyline fill="none" stroke="#162349" points="192,-17.5 270,-17.5 "/>
<text text-anchor="middle" x="231" y="-7.1" font-family="Roboto" font-size="8.00" fill="#162349">Etape(étage 6)</text>
</g>
<!-- AA&#45;&gt;D -->
<g id="edge4" class="edge">
<title>AA&#45;&gt;D</title>
<path fill="none" stroke="#162349" d="M156.7839,-87.8468C167.312,-79.0733 180.2675,-68.2771 192.3911,-58.1741"/>
<polygon fill="#162349" stroke="#162349" points="194.7625,-60.7539 200.2041,-51.6633 190.2812,-55.3764 194.7625,-60.7539"/>
</g>
</g>
</svg>
