<?xml version="1.0" encoding="UTF-8" standalone="no"?>
<!DOCTYPE svg PUBLIC "-//W3C//DTD SVG 1.1//EN"
 "http://www.w3.org/Graphics/SVG/1.1/DTD/svg11.dtd">
<!-- Generated by graphviz version 2.40.1 (20161225.0304)
 -->
<!-- Title: G Pages: 1 -->
<svg width="256pt" height="73pt"
 viewBox="0.00 0.00 255.96 73.00" xmlns="http://www.w3.org/2000/svg" xmlns:xlink="http://www.w3.org/1999/xlink">
<g id="graph0" class="graph" transform="scale(1 1) rotate(0) translate(4 69)">
<title>G</title>
<polygon fill="transparent" stroke="transparent" points="-4,4 -4,-69 251.9583,-69 251.9583,4 -4,4"/>
<!-- A -->
<g id="node1" class="node">
<title>A</title>
<ellipse fill="none" stroke="#162349" cx="40.8404" cy="-18" rx="40.6815" ry="18"/>
<text text-anchor="middle" x="40.8404" y="-16.1" font-family="Roboto" font-size="8.00" fill="#162349">Porte Ouverte</text>
</g>
<!-- B -->
<g id="node2" class="node">
<title>B</title>
<ellipse fill="none" stroke="#162349" cx="208.8196" cy="-18" rx="39.278" ry="18"/>
<text text-anchor="middle" x="208.8196" y="-16.1" font-family="Roboto" font-size="8.00" fill="#162349">Porte fermée</text>
</g>
<!-- A&#45;&gt;B -->
<g id="edge1" class="edge">
<title>A&#45;&gt;B</title>
<path fill="none" stroke="#162349" d="M81.9328,-18C105.3044,-18 134.7339,-18 159.365,-18"/>
<polygon fill="#162349" stroke="#162349" points="159.5958,-21.5001 169.5958,-18 159.5958,-14.5001 159.5958,-21.5001"/>
<text text-anchor="middle" x="125.6809" y="-21" font-family="Roboto" font-size="10.00" fill="#162349">Fermeture</text>
</g>
<!-- B&#45;&gt;A -->
<g id="edge2" class="edge">
<title>B&#45;&gt;A</title>
<path fill="none" stroke="#162349" d="M176.1706,-7.8912C168.2339,-5.8627 159.7165,-4.0372 151.6809,-3 128.7599,-.0415 122.6122,-.1231 99.6809,-3 94.8365,-3.6078 89.8193,-4.4865 84.8501,-5.5184"/>
<polygon fill="#162349" stroke="#162349" points="83.7599,-2.1771 74.7888,-7.8136 85.3168,-9.0018 83.7599,-2.1771"/>
<text text-anchor="middle" x="125.6809" y="-6" font-family="Roboto" font-size="10.00" fill="#162349">Ouverture</text>
</g>
<!-- B&#45;&gt;B -->
<g id="edge3" class="edge">
<title>B&#45;&gt;B</title>
<path fill="none" stroke="#162349" d="M194.2892,-35.0373C191.3238,-44.8579 196.1673,-54 208.8196,-54 216.7273,-54 221.5847,-50.4289 223.3917,-45.3529"/>
<polygon fill="#162349" stroke="#162349" points="226.8905,-45.023 223.35,-35.0373 219.8906,-45.0514 226.8905,-45.023"/>
<text text-anchor="middle" x="208.8196" y="-57" font-family="Roboto" font-size="10.00" fill="#162349">Sonnerie</text>
</g>
</g>
</svg>
