<?xml version="1.0" encoding="UTF-8" standalone="no"?>
<!DOCTYPE svg PUBLIC "-//W3C//DTD SVG 1.1//EN"
 "http://www.w3.org/Graphics/SVG/1.1/DTD/svg11.dtd">
<!-- Generated by graphviz version 2.40.1 (20161225.0304)
 -->
<!-- Title: G Pages: 1 -->
<svg width="192pt" height="73pt"
 viewBox="0.00 0.00 191.72 73.00" xmlns="http://www.w3.org/2000/svg" xmlns:xlink="http://www.w3.org/1999/xlink">
<g id="graph0" class="graph" transform="scale(1 1) rotate(0) translate(4 69)">
<title>G</title>
<polygon fill="transparent" stroke="transparent" points="-4,4 -4,-69 187.7228,-69 187.7228,4 -4,4"/>
<!-- A -->
<g id="node1" class="node">
<title>A</title>
<ellipse fill="none" stroke="#162349" cx="28.3614" cy="-18" rx="28.2235" ry="18"/>
<text text-anchor="middle" x="28.3614" y="-16.1" font-family="Roboto" font-size="8.00" fill="#162349">Running</text>
</g>
<!-- A&#45;&gt;A -->
<g id="edge3" class="edge">
<title>A&#45;&gt;A</title>
<path fill="none" stroke="#162349" d="M17.1114,-34.6641C14.6114,-44.625 18.3614,-54 28.3614,-54 34.7677,-54 38.6089,-50.1525 39.8851,-44.7682"/>
<polygon fill="#162349" stroke="#162349" points="43.381,-44.5656 39.6114,-34.6641 36.3836,-44.7552 43.381,-44.5656"/>
<text text-anchor="middle" x="28.3614" y="-57" font-family="Roboto" font-size="10.00" fill="#162349">tick</text>
</g>
<!-- B -->
<g id="node2" class="node">
<title>B</title>
<ellipse fill="none" stroke="#162349" cx="156.7228" cy="-18" rx="27" ry="18"/>
<text text-anchor="middle" x="156.7228" y="-16.1" font-family="Roboto" font-size="8.00" fill="#162349">Paused</text>
</g>
<!-- A&#45;&gt;B -->
<g id="edge1" class="edge">
<title>A&#45;&gt;B</title>
<path fill="none" stroke="#162349" d="M56.849,-18C75.3405,-18 99.6282,-18 119.6223,-18"/>
<polygon fill="#162349" stroke="#162349" points="119.6331,-21.5001 129.633,-18 119.633,-14.5001 119.6331,-21.5001"/>
<text text-anchor="middle" x="93.2228" y="-21" font-family="Roboto" font-size="10.00" fill="#162349">pause</text>
</g>
<!-- B&#45;&gt;A -->
<g id="edge2" class="edge">
<title>B&#45;&gt;A</title>
<path fill="none" stroke="#162349" d="M133.2613,-8.5986C126.4289,-6.296 118.8761,-4.1608 111.7228,-3 95.4907,-.3659 90.9664,-.4376 74.7228,-3 70.7013,-3.6344 66.5534,-4.5603 62.4688,-5.6458"/>
<polygon fill="#162349" stroke="#162349" points="61.1393,-2.3897 52.5536,-8.5975 63.1366,-9.0988 61.1393,-2.3897"/>
<text text-anchor="middle" x="93.2228" y="-6" font-family="Roboto" font-size="10.00" fill="#162349">resume</text>
</g>
<!-- B&#45;&gt;B -->
<g id="edge4" class="edge">
<title>B&#45;&gt;B</title>
<path fill="none" stroke="#162349" d="M145.8244,-34.6641C143.4025,-44.625 147.0353,-54 156.7228,-54 162.9289,-54 166.6501,-50.1525 167.8864,-44.7682"/>
<polygon fill="#162349" stroke="#162349" points="171.3825,-44.5688 167.6213,-34.6641 164.3849,-44.7525 171.3825,-44.5688"/>
<text text-anchor="middle" x="156.7228" y="-57" font-family="Roboto" font-size="10.00" fill="#162349">sleep</text>
</g>
</g>
</svg>
