<?xml version="1.0" encoding="UTF-8" standalone="no"?>
<!DOCTYPE svg PUBLIC "-//W3C//DTD SVG 1.1//EN"
 "http://www.w3.org/Graphics/SVG/1.1/DTD/svg11.dtd">
<!-- Generated by graphviz version 2.40.1 (20161225.0304)
 -->
<!-- Title: G Pages: 1 -->
<svg width="206pt" height="260pt"
 viewBox="0.00 0.00 206.00 260.00" xmlns="http://www.w3.org/2000/svg" xmlns:xlink="http://www.w3.org/1999/xlink">
<g id="graph0" class="graph" transform="scale(1 1) rotate(0) translate(4 256)">
<title>G</title>
<polygon fill="#ffffff" stroke="transparent" points="-4,4 -4,-256 202,-256 202,4 -4,4"/>
<!-- C -->
<g id="node1" class="node">
<title>C</title>
<ellipse fill="none" stroke="#137a86" cx="63" cy="-234" rx="27" ry="18"/>
<text text-anchor="middle" x="63" y="-231.6" font-family="Times,serif" font-size="8.00" fill="#137a86">+</text>
</g>
<!-- G -->
<g id="node2" class="node">
<title>G</title>
<ellipse fill="none" stroke="#137a86" cx="27" cy="-162" rx="27" ry="18"/>
<text text-anchor="middle" x="27" y="-159.6" font-family="Times,serif" font-size="8.00" fill="#137a86">4</text>
</g>
<!-- C&#45;&gt;G -->
<g id="edge5" class="edge">
<title>C&#45;&gt;G</title>
<path fill="none" stroke="#137a86" d="M54.2854,-216.5708C50.0403,-208.0807 44.8464,-197.6929 40.1337,-188.2674"/>
<polygon fill="#137a86" stroke="#137a86" points="43.237,-186.6477 35.6343,-179.2687 36.976,-189.7782 43.237,-186.6477"/>
</g>
<!-- B -->
<g id="node3" class="node">
<title>B</title>
<ellipse fill="none" stroke="#137a86" cx="99" cy="-162" rx="27" ry="18"/>
<text text-anchor="middle" x="99" y="-159.6" font-family="Times,serif" font-size="8.00" fill="#137a86">+</text>
</g>
<!-- C&#45;&gt;B -->
<g id="edge6" class="edge">
<title>C&#45;&gt;B</title>
<path fill="none" stroke="#137a86" d="M71.7146,-216.5708C75.9597,-208.0807 81.1536,-197.6929 85.8663,-188.2674"/>
<polygon fill="#137a86" stroke="#137a86" points="89.024,-189.7782 90.3657,-179.2687 82.763,-186.6477 89.024,-189.7782"/>
</g>
<!-- F -->
<g id="node4" class="node">
<title>F</title>
<ellipse fill="none" stroke="#137a86" cx="63" cy="-90" rx="27" ry="18"/>
<text text-anchor="middle" x="63" y="-87.6" font-family="Times,serif" font-size="8.00" fill="#137a86">3</text>
</g>
<!-- B&#45;&gt;F -->
<g id="edge3" class="edge">
<title>B&#45;&gt;F</title>
<path fill="none" stroke="#137a86" d="M90.2854,-144.5708C86.0403,-136.0807 80.8464,-125.6929 76.1337,-116.2674"/>
<polygon fill="#137a86" stroke="#137a86" points="79.237,-114.6477 71.6343,-107.2687 72.976,-117.7782 79.237,-114.6477"/>
</g>
<!-- A -->
<g id="node5" class="node">
<title>A</title>
<ellipse fill="none" stroke="#137a86" cx="135" cy="-90" rx="27" ry="18"/>
<text text-anchor="middle" x="135" y="-87.6" font-family="Times,serif" font-size="8.00" fill="#137a86">+</text>
</g>
<!-- B&#45;&gt;A -->
<g id="edge4" class="edge">
<title>B&#45;&gt;A</title>
<path fill="none" stroke="#137a86" d="M107.7146,-144.5708C111.9597,-136.0807 117.1536,-125.6929 121.8663,-116.2674"/>
<polygon fill="#137a86" stroke="#137a86" points="125.024,-117.7782 126.3657,-107.2687 118.763,-114.6477 125.024,-117.7782"/>
</g>
<!-- D -->
<g id="node6" class="node">
<title>D</title>
<ellipse fill="none" stroke="#137a86" cx="99" cy="-18" rx="27" ry="18"/>
<text text-anchor="middle" x="99" y="-15.6" font-family="Times,serif" font-size="8.00" fill="#137a86">1</text>
</g>
<!-- A&#45;&gt;D -->
<g id="edge1" class="edge">
<title>A&#45;&gt;D</title>
<path fill="none" stroke="#137a86" d="M126.2854,-72.5708C122.0403,-64.0807 116.8464,-53.6929 112.1337,-44.2674"/>
<polygon fill="#137a86" stroke="#137a86" points="115.237,-42.6477 107.6343,-35.2687 108.976,-45.7782 115.237,-42.6477"/>
</g>
<!-- E -->
<g id="node7" class="node">
<title>E</title>
<ellipse fill="none" stroke="#137a86" cx="171" cy="-18" rx="27" ry="18"/>
<text text-anchor="middle" x="171" y="-15.6" font-family="Times,serif" font-size="8.00" fill="#137a86">2</text>
</g>
<!-- A&#45;&gt;E -->
<g id="edge2" class="edge">
<title>A&#45;&gt;E</title>
<path fill="none" stroke="#137a86" d="M143.7146,-72.5708C147.9597,-64.0807 153.1536,-53.6929 157.8663,-44.2674"/>
<polygon fill="#137a86" stroke="#137a86" points="161.024,-45.7782 162.3657,-35.2687 154.763,-42.6477 161.024,-45.7782"/>
</g>
</g>
</svg>
