<?xml version="1.0" encoding="UTF-8" standalone="no"?>
<!DOCTYPE svg PUBLIC "-//W3C//DTD SVG 1.1//EN"
 "http://www.w3.org/Graphics/SVG/1.1/DTD/svg11.dtd">
<!-- Generated by graphviz version 2.40.1 (20161225.0304)
 -->
<!-- Title: G Pages: 1 -->
<svg width="530pt" height="44pt"
 viewBox="0.00 0.00 529.86 44.00" xmlns="http://www.w3.org/2000/svg" xmlns:xlink="http://www.w3.org/1999/xlink">
<g id="graph0" class="graph" transform="scale(1 1) rotate(0) translate(4 40)">
<title>G</title>
<polygon fill="#ffffff" stroke="transparent" points="-4,4 -4,-40 525.8633,-40 525.8633,4 -4,4"/>
<!-- A -->
<g id="node1" class="node">
<title>A</title>
<text text-anchor="middle" x="37.0996" y="-15.6" font-family="Times,serif" font-size="8.00" fill="#137a86">Elixir source code</text>
</g>
<!-- B -->
<g id="node2" class="node">
<title>B</title>
<polygon fill="none" stroke="#137a86" points="164.0996,-36 110.0996,-36 110.0996,0 164.0996,0 164.0996,-36"/>
<text text-anchor="middle" x="137.0996" y="-15.6" font-family="Times,serif" font-size="8.00" fill="#137a86">Parsing</text>
</g>
<!-- A&#45;&gt;B -->
<g id="edge1" class="edge">
<title>A&#45;&gt;B</title>
<path fill="none" stroke="#137a86" d="M74.209,-18C82.8022,-18 91.3954,-18 99.9886,-18"/>
<polygon fill="#137a86" stroke="#137a86" points="100.0763,-21.5001 110.0763,-18 100.0763,-14.5001 100.0763,-21.5001"/>
</g>
<!-- C -->
<g id="node3" class="node">
<title>C</title>
<polygon fill="none" stroke="#137a86" points="255.0996,-36 201.0996,-36 201.0996,0 255.0996,0 255.0996,-36"/>
<text text-anchor="middle" x="228.0996" y="-15.6" font-family="Times,serif" font-size="8.00" fill="#137a86">Expansion</text>
</g>
<!-- B&#45;&gt;C -->
<g id="edge2" class="edge">
<title>B&#45;&gt;C</title>
<path fill="none" stroke="#137a86" d="M164.4026,-18C172.6809,-18 181.9214,-18 190.7401,-18"/>
<polygon fill="#137a86" stroke="#137a86" points="190.8159,-21.5001 200.8159,-18 190.8158,-14.5001 190.8159,-21.5001"/>
<text text-anchor="middle" x="182.5996" y="-23" font-family="Times,serif" font-size="10.00" fill="#137a86">AST</text>
</g>
<!-- D -->
<g id="node4" class="node">
<title>D</title>
<polygon fill="none" stroke="#137a86" points="415.0723,-36 333.1269,-36 333.1269,0 415.0723,0 415.0723,-36"/>
<text text-anchor="middle" x="374.0996" y="-15.6" font-family="Times,serif" font-size="8.00" fill="#137a86">Bytecode generation</text>
</g>
<!-- C&#45;&gt;D -->
<g id="edge3" class="edge">
<title>C&#45;&gt;D</title>
<path fill="none" stroke="#137a86" d="M255.2189,-18C274.1698,-18 300.058,-18 322.8384,-18"/>
<polygon fill="#137a86" stroke="#137a86" points="323.0503,-21.5001 333.0503,-18 323.0503,-14.5001 323.0503,-21.5001"/>
<text text-anchor="middle" x="294.1064" y="-23" font-family="Times,serif" font-size="10.00" fill="#137a86">Expanded AST</text>
</g>
<!-- E -->
<g id="node5" class="node">
<title>E</title>
<text text-anchor="middle" x="486.0996" y="-15.6" font-family="Times,serif" font-size="8.00" fill="#137a86">bytecode (.beam)</text>
</g>
<!-- D&#45;&gt;E -->
<g id="edge4" class="edge">
<title>D&#45;&gt;E</title>
<path fill="none" stroke="#137a86" d="M415.2246,-18C423.5569,-18 431.8893,-18 440.2216,-18"/>
<polygon fill="#137a86" stroke="#137a86" points="440.3853,-21.5001 450.3853,-18 440.3852,-14.5001 440.3853,-21.5001"/>
</g>
</g>
</svg>
