<?xml version="1.0" encoding="UTF-8" standalone="no"?>
<!DOCTYPE svg PUBLIC "-//W3C//DTD SVG 1.1//EN"
 "http://www.w3.org/Graphics/SVG/1.1/DTD/svg11.dtd">
<!-- Generated by graphviz version 2.40.1 (20161225.0304)
 -->
<!-- Title: G Pages: 1 -->
<svg width="217pt" height="72pt"
 viewBox="0.00 0.00 216.53 72.00" xmlns="http://www.w3.org/2000/svg" xmlns:xlink="http://www.w3.org/1999/xlink">
<g id="graph0" class="graph" transform="scale(1 1) rotate(0) translate(4 68)">
<title>G</title>
<polygon fill="#ffffff" stroke="transparent" points="-4,4 -4,-68 212.5308,-68 212.5308,4 -4,4"/>
<!-- A -->
<g id="node1" class="node">
<title>A</title>
<ellipse fill="none" stroke="#137a86" cx="33.8535" cy="-18" rx="33.7076" ry="18"/>
<text text-anchor="middle" x="33.8535" y="-15.6" font-family="Times,serif" font-size="8.00" fill="#137a86">Porte Ouverte</text>
</g>
<!-- B -->
<g id="node2" class="node">
<title>B</title>
<ellipse fill="none" stroke="#137a86" cx="176.6658" cy="-18" rx="31.7307" ry="18"/>
<text text-anchor="middle" x="176.6658" y="-15.6" font-family="Times,serif" font-size="8.00" fill="#137a86">Porte fermée</text>
</g>
<!-- A&#45;&gt;B -->
<g id="edge1" class="edge">
<title>A&#45;&gt;B</title>
<path fill="none" stroke="#137a86" d="M68.0606,-18C88.0586,-18 113.4572,-18 134.6635,-18"/>
<polygon fill="#137a86" stroke="#137a86" points="134.6951,-21.5001 144.6951,-18 134.6951,-14.5001 134.6951,-21.5001"/>
<text text-anchor="middle" x="106.2539" y="-20" font-family="Times,serif" font-size="10.00" fill="#137a86">Fermeture</text>
</g>
<!-- B&#45;&gt;A -->
<g id="edge2" class="edge">
<title>B&#45;&gt;A</title>
<path fill="none" stroke="#137a86" d="M148.995,-8.7832C141.8463,-6.8038 134.1051,-5.0059 126.8007,-4 108.7076,-1.5083 103.8123,-1.5988 85.707,-4 81.4953,-4.5586 77.1403,-5.3618 72.8263,-6.3048"/>
<polygon fill="#137a86" stroke="#137a86" points="71.8135,-2.949 62.9218,-8.7099 73.4653,-9.7513 71.8135,-2.949"/>
<text text-anchor="middle" x="106.2539" y="-6" font-family="Times,serif" font-size="10.00" fill="#137a86">Ouverture</text>
</g>
<!-- B&#45;&gt;B -->
<g id="edge3" class="edge">
<title>B&#45;&gt;B</title>
<path fill="none" stroke="#137a86" d="M164.3611,-34.6641C161.6267,-44.625 165.7283,-54 176.6658,-54 183.6726,-54 187.874,-50.1525 189.2699,-44.7682"/>
<polygon fill="#137a86" stroke="#137a86" points="192.7652,-44.556 188.9705,-34.6641 185.7683,-44.7634 192.7652,-44.556"/>
<text text-anchor="middle" x="176.6658" y="-56" font-family="Times,serif" font-size="10.00" fill="#137a86">Sonnerie</text>
</g>
</g>
</svg>
