<?xml version="1.0" encoding="UTF-8" standalone="no"?>
<!DOCTYPE svg PUBLIC "-//W3C//DTD SVG 1.1//EN"
 "http://www.w3.org/Graphics/SVG/1.1/DTD/svg11.dtd">
<!-- Generated by graphviz version 2.40.1 (20161225.0304)
 -->
<!-- Title: G Pages: 1 -->
<svg width="223pt" height="73pt"
 viewBox="0.00 0.00 223.27 73.00" xmlns="http://www.w3.org/2000/svg" xmlns:xlink="http://www.w3.org/1999/xlink">
<g id="graph0" class="graph" transform="scale(1 1) rotate(0) translate(4 69)">
<title>G</title>
<polygon fill="#ffffff" stroke="transparent" points="-4,4 -4,-69 219.2692,-69 219.2692,4 -4,4"/>
<!-- A -->
<g id="node1" class="node">
<title>A</title>
<ellipse fill="none" stroke="#137a86" cx="35.1681" cy="-18" rx="35.3371" ry="18"/>
<text text-anchor="middle" x="35.1681" y="-16.1" font-family="Times,serif" font-size="8.00" fill="#137a86">Porte Ouverte</text>
</g>
<!-- B -->
<g id="node2" class="node">
<title>B</title>
<ellipse fill="none" stroke="#137a86" cx="181.8028" cy="-18" rx="33.433" ry="18"/>
<text text-anchor="middle" x="181.8028" y="-16.1" font-family="Times,serif" font-size="8.00" fill="#137a86">Porte fermée</text>
</g>
<!-- A&#45;&gt;B -->
<g id="edge1" class="edge">
<title>A&#45;&gt;B</title>
<path fill="none" stroke="#137a86" d="M70.6643,-18C90.9139,-18 116.464,-18 137.9591,-18"/>
<polygon fill="#137a86" stroke="#137a86" points="138.1446,-21.5001 148.1446,-18 138.1445,-14.5001 138.1446,-21.5001"/>
<text text-anchor="middle" x="109.3363" y="-21" font-family="Times,serif" font-size="10.00" fill="#137a86">Fermeture</text>
</g>
<!-- B&#45;&gt;A -->
<g id="edge2" class="edge">
<title>B&#45;&gt;A</title>
<path fill="none" stroke="#137a86" d="M153.5353,-8.2035C146.082,-6.0522 137.9835,-4.0917 130.3363,-3 111.857,-.362 106.8268,-.4416 88.3363,-3 83.8325,-3.6231 79.1735,-4.5299 74.5712,-5.5938"/>
<polygon fill="#137a86" stroke="#137a86" points="73.4907,-2.2574 64.669,-8.1249 75.2243,-9.0394 73.4907,-2.2574"/>
<text text-anchor="middle" x="109.3363" y="-6" font-family="Times,serif" font-size="10.00" fill="#137a86">Ouverture</text>
</g>
<!-- B&#45;&gt;B -->
<g id="edge3" class="edge">
<title>B&#45;&gt;B</title>
<path fill="none" stroke="#137a86" d="M169.1465,-34.6641C166.334,-44.625 170.5528,-54 181.8028,-54 189.0098,-54 193.3312,-50.1525 194.767,-44.7682"/>
<polygon fill="#137a86" stroke="#137a86" points="198.2621,-44.5528 194.459,-34.6641 191.2654,-44.7661 198.2621,-44.5528"/>
<text text-anchor="middle" x="181.8028" y="-57" font-family="Times,serif" font-size="10.00" fill="#137a86">Sonnerie</text>
</g>
</g>
</svg>
