<?xml version="1.0" encoding="UTF-8" standalone="no"?>
<!DOCTYPE svg PUBLIC "-//W3C//DTD SVG 1.1//EN"
 "http://www.w3.org/Graphics/SVG/1.1/DTD/svg11.dtd">
<!-- Generated by graphviz version 2.40.1 (20161225.0304)
 -->
<!-- Title: G Pages: 1 -->
<svg width="181pt" height="72pt"
 viewBox="0.00 0.00 180.88 72.00" xmlns="http://www.w3.org/2000/svg" xmlns:xlink="http://www.w3.org/1999/xlink">
<g id="graph0" class="graph" transform="scale(1 1) rotate(0) translate(4 68)">
<title>G</title>
<polygon fill="#ffffff" stroke="transparent" points="-4,4 -4,-68 176.877,-68 176.877,4 -4,4"/>
<!-- A -->
<g id="node1" class="node">
<title>A</title>
<ellipse fill="none" stroke="#137a86" cx="27" cy="-18" rx="27" ry="18"/>
<text text-anchor="middle" x="27" y="-15.6" font-family="Times,serif" font-size="8.00" fill="#137a86">Running</text>
</g>
<!-- A&#45;&gt;A -->
<g id="edge3" class="edge">
<title>A&#45;&gt;A</title>
<path fill="none" stroke="#137a86" d="M16.7224,-35.0373C14.6249,-44.8579 18.0508,-54 27,-54 32.5933,-54 36.029,-50.4289 37.3071,-45.3529"/>
<polygon fill="#137a86" stroke="#137a86" points="40.8063,-45.0272 37.2776,-35.0373 33.8063,-45.0473 40.8063,-45.0272"/>
<text text-anchor="middle" x="27" y="-56" font-family="Times,serif" font-size="10.00" fill="#137a86">tick</text>
</g>
<!-- B -->
<g id="node2" class="node">
<title>B</title>
<ellipse fill="none" stroke="#137a86" cx="145.877" cy="-18" rx="27" ry="18"/>
<text text-anchor="middle" x="145.877" y="-15.6" font-family="Times,serif" font-size="8.00" fill="#137a86">Paused</text>
</g>
<!-- A&#45;&gt;B -->
<g id="edge1" class="edge">
<title>A&#45;&gt;B</title>
<path fill="none" stroke="#137a86" d="M54.2728,-18C70.2809,-18 90.7433,-18 108.2664,-18"/>
<polygon fill="#137a86" stroke="#137a86" points="108.7311,-21.5001 118.7311,-18 108.731,-14.5001 108.7311,-21.5001"/>
<text text-anchor="middle" x="86.4385" y="-20" font-family="Times,serif" font-size="10.00" fill="#137a86">pause</text>
</g>
<!-- B&#45;&gt;A -->
<g id="edge2" class="edge">
<title>B&#45;&gt;A</title>
<path fill="none" stroke="#137a86" d="M121.9032,-9.0769C115.1945,-6.984 107.8335,-5.0571 100.877,-4 88.1884,-2.0718 84.6885,-2.0718 72,-4 68.3043,-4.5616 64.4945,-5.3687 60.729,-6.3157"/>
<polygon fill="#137a86" stroke="#137a86" points="59.6425,-2.9856 50.9737,-9.0769 61.549,-9.721 59.6425,-2.9856"/>
<text text-anchor="middle" x="86.4385" y="-6" font-family="Times,serif" font-size="10.00" fill="#137a86">resume</text>
</g>
<!-- B&#45;&gt;B -->
<g id="edge4" class="edge">
<title>B&#45;&gt;B</title>
<path fill="none" stroke="#137a86" d="M135.5993,-35.0373C133.5019,-44.8579 136.9277,-54 145.877,-54 151.4702,-54 154.9059,-50.4289 156.1841,-45.3529"/>
<polygon fill="#137a86" stroke="#137a86" points="159.6832,-45.0272 156.1546,-35.0373 152.6833,-45.0473 159.6832,-45.0272"/>
<text text-anchor="middle" x="145.877" y="-56" font-family="Times,serif" font-size="10.00" fill="#137a86">sleep</text>
</g>
</g>
</svg>
