<?xml version="1.0" encoding="UTF-8" standalone="no"?>
<!DOCTYPE svg PUBLIC "-//W3C//DTD SVG 1.1//EN"
 "http://www.w3.org/Graphics/SVG/1.1/DTD/svg11.dtd">
<!-- Generated by graphviz version 2.40.1 (20161225.0304)
 -->
<!-- Title: G Pages: 1 -->
<svg width="181pt" height="73pt"
 viewBox="0.00 0.00 181.00 73.00" xmlns="http://www.w3.org/2000/svg" xmlns:xlink="http://www.w3.org/1999/xlink">
<g id="graph0" class="graph" transform="scale(1 1) rotate(0) translate(4 69)">
<title>G</title>
<polygon fill="#ffffff" stroke="transparent" points="-4,4 -4,-69 177,-69 177,4 -4,4"/>
<!-- A -->
<g id="node1" class="node">
<title>A</title>
<ellipse fill="none" stroke="#137a86" cx="27" cy="-18" rx="27" ry="18"/>
<text text-anchor="middle" x="27" y="-16.1" font-family="Times,serif" font-size="8.00" fill="#137a86">Running</text>
</g>
<!-- A&#45;&gt;A -->
<g id="edge3" class="edge">
<title>A&#45;&gt;A</title>
<path fill="none" stroke="#137a86" d="M16.7224,-35.0373C14.6249,-44.8579 18.0508,-54 27,-54 32.5933,-54 36.029,-50.4289 37.3071,-45.3529"/>
<polygon fill="#137a86" stroke="#137a86" points="40.8063,-45.0272 37.2776,-35.0373 33.8063,-45.0473 40.8063,-45.0272"/>
<text text-anchor="middle" x="27" y="-57" font-family="Times,serif" font-size="10.00" fill="#137a86">tick</text>
</g>
<!-- B -->
<g id="node2" class="node">
<title>B</title>
<ellipse fill="none" stroke="#137a86" cx="146" cy="-18" rx="27" ry="18"/>
<text text-anchor="middle" x="146" y="-16.1" font-family="Times,serif" font-size="8.00" fill="#137a86">Paused</text>
</g>
<!-- A&#45;&gt;B -->
<g id="edge1" class="edge">
<title>A&#45;&gt;B</title>
<path fill="none" stroke="#137a86" d="M54.0029,-18C70.1682,-18 90.95,-18 108.6703,-18"/>
<polygon fill="#137a86" stroke="#137a86" points="108.692,-21.5001 118.692,-18 108.692,-14.5001 108.692,-21.5001"/>
<text text-anchor="middle" x="86.5" y="-21" font-family="Times,serif" font-size="10.00" fill="#137a86">pause</text>
</g>
<!-- B&#45;&gt;A -->
<g id="edge2" class="edge">
<title>B&#45;&gt;A</title>
<path fill="none" stroke="#137a86" d="M122.5385,-8.5986C115.7061,-6.296 108.1533,-4.1608 101,-3 88.2775,-.9354 84.7225,-.9354 72,-3 68.088,-3.6348 64.0566,-4.5611 60.0888,-5.6467"/>
<polygon fill="#137a86" stroke="#137a86" points="58.9962,-2.3208 50.4615,-8.5986 61.0482,-9.0133 58.9962,-2.3208"/>
<text text-anchor="middle" x="86.5" y="-6" font-family="Times,serif" font-size="10.00" fill="#137a86">resume</text>
</g>
<!-- B&#45;&gt;B -->
<g id="edge4" class="edge">
<title>B&#45;&gt;B</title>
<path fill="none" stroke="#137a86" d="M135.7224,-35.0373C133.6249,-44.8579 137.0508,-54 146,-54 151.5933,-54 155.029,-50.4289 156.3071,-45.3529"/>
<polygon fill="#137a86" stroke="#137a86" points="159.8063,-45.0272 156.2776,-35.0373 152.8063,-45.0473 159.8063,-45.0272"/>
<text text-anchor="middle" x="146" y="-57" font-family="Times,serif" font-size="10.00" fill="#137a86">sleep</text>
</g>
</g>
</svg>
